<svg width="32" height="32" viewBox="0 0 32 32" fill="none" xmlns="http://www.w3.org/2000/svg">
<mask id="mask0_1623_432400" style="mask-type:alpha" maskUnits="userSpaceOnUse" x="4" y="4" width="24" height="24">
<rect x="4" y="4" width="24" height="24" fill="#D9D9D9"/>
</mask>
<g mask="url(#mask0_1623_432400)">
<path d="M8 24V15C7.45 15 6.97917 14.8042 6.5875 14.4125C6.19583 14.0208 6 13.55 6 13V11C6 10.45 6.19583 9.97917 6.5875 9.5875C6.97917 9.19583 7.45 9 8 9H11.2C11.1167 8.85 11.0625 8.69167 11.0375 8.525C11.0125 8.35833 11 8.18333 11 8C11 7.16667 11.2917 6.45833 11.875 5.875C12.4583 5.29167 13.1667 5 14 5C14.3833 5 14.7417 5.07083 15.075 5.2125C15.4083 5.35417 15.7167 5.55 16 5.8C16.2833 5.53333 16.5917 5.33333 16.925 5.2C17.2583 5.06667 17.6167 5 18 5C18.8333 5 19.5417 5.29167 20.125 5.875C20.7083 6.45833 21 7.16667 21 8C21 8.18333 20.9833 8.35417 20.95 8.5125C20.9167 8.67083 20.8667 8.83333 20.8 9H24C24.55 9 25.0208 9.19583 25.4125 9.5875C25.8042 9.97917 26 10.45 26 11V13C26 13.55 25.8042 14.0208 25.4125 14.4125C25.0208 14.8042 24.55 15 24 15V24C24 24.55 23.8042 25.0208 23.4125 25.4125C23.0208 25.8042 22.55 26 22 26H10C9.45 26 8.97917 25.8042 8.5875 25.4125C8.19583 25.0208 8 24.55 8 24ZM18 7C17.7167 7 17.4792 7.09583 17.2875 7.2875C17.0958 7.47917 17 7.71667 17 8C17 8.28333 17.0958 8.52083 17.2875 8.7125C17.4792 8.90417 17.7167 9 18 9C18.2833 9 18.5208 8.90417 18.7125 8.7125C18.9042 8.52083 19 8.28333 19 8C19 7.71667 18.9042 7.47917 18.7125 7.2875C18.5208 7.09583 18.2833 7 18 7ZM13 8C13 8.28333 13.0958 8.52083 13.2875 8.7125C13.4792 8.90417 13.7167 9 14 9C14.2833 9 14.5208 8.90417 14.7125 8.7125C14.9042 8.52083 15 8.28333 15 8C15 7.71667 14.9042 7.47917 14.7125 7.2875C14.5208 7.09583 14.2833 7 14 7C13.7167 7 13.4792 7.09583 13.2875 7.2875C13.0958 7.47917 13 7.71667 13 8ZM8 11V13H15V11H8ZM15 24V15H10V24H15ZM17 24H22V15H17V24ZM24 13V11H17V13H24Z" fill="#00ACFF"/>
</g>
</svg>
