<svg width="32" height="32" viewBox="0 0 32 32" fill="none" xmlns="http://www.w3.org/2000/svg">
<path d="M25.6666 15.6667L23.5526 8.26742C23.2255 7.12262 22.1791 6.33334 20.9885 6.33334H11.0115C9.82084 6.33334 8.77447 7.12262 8.44739 8.26742L6.33331 15.6667M25.6666 15.6667V23C25.6666 24.4728 24.4727 25.6667 23 25.6667H8.99998C7.52722 25.6667 6.33331 24.4728 6.33331 23V15.6667M25.6666 15.6667H19.7722C19.2071 15.6667 18.7252 16.0436 18.3811 16.4919C17.8327 17.2062 16.9701 17.6667 16 17.6667C15.0299 17.6667 14.1673 17.2062 13.6189 16.4919C13.2748 16.0436 12.7929 15.6667 12.2278 15.6667H6.33331" stroke="#FF7D52" stroke-width="2" stroke-linecap="round" stroke-linejoin="round"/>
</svg>
