<svg width="32" height="32" viewBox="0 0 32 32" fill="none" xmlns="http://www.w3.org/2000/svg">
<path fill-rule="evenodd" clip-rule="evenodd" d="M7.08331 16C7.08331 11.0755 11.0754 7.08334 16 7.08334C20.9245 7.08334 24.9166 11.0755 24.9166 16C24.9166 20.9245 20.9245 24.9167 16 24.9167C11.0754 24.9167 7.08331 20.9245 7.08331 16ZM16 5.58334C10.247 5.58334 5.58331 10.247 5.58331 16C5.58331 21.753 10.247 26.4167 16 26.4167C21.7529 26.4167 26.4166 21.753 26.4166 16C26.4166 10.247 21.7529 5.58334 16 5.58334ZM16 11.8333C15.9079 11.8333 15.8333 11.908 15.8333 12C15.8333 12.0921 15.9079 12.1667 16 12.1667C16.092 12.1667 16.1666 12.0921 16.1666 12C16.1666 11.908 16.092 11.8333 16 11.8333ZM14.8333 12C14.8333 11.3557 15.3556 10.8333 16 10.8333C16.6443 10.8333 17.1666 11.3557 17.1666 12C17.1666 12.6443 16.6443 13.1667 16 13.1667C15.3556 13.1667 14.8333 12.6443 14.8333 12ZM16 16.3333C16.5523 16.3333 17 16.7811 17 17.3333V20C17 20.5523 16.5523 21 16 21C15.4477 21 15 20.5523 15 20V17.3333C15 16.7811 15.4477 16.3333 16 16.3333Z" fill="#F53D6B"/>
</svg>
