<svg width="32" height="32" viewBox="0 0 32 32" fill="none" xmlns="http://www.w3.org/2000/svg">
<mask id="mask0_1523_160663" style="mask-type:alpha" maskUnits="userSpaceOnUse" x="0" y="0" width="32" height="32">
<rect width="32" height="32" fill="#D9D9D9"/>
</mask>
<g mask="url(#mask0_1523_160663)">
<path d="M13.3333 28.0003V20.0003H12C11.6222 20.0003 11.3055 19.8725 11.05 19.617C10.7944 19.3614 10.6666 19.0448 10.6666 18.667V12.0003C10.6666 11.267 10.9277 10.6392 11.45 10.117C11.9722 9.59477 12.6 9.33366 13.3333 9.33366H18.6666C19.4 9.33366 20.0277 9.59477 20.55 10.117C21.0722 10.6392 21.3333 11.267 21.3333 12.0003V18.667C21.3333 19.0448 21.2055 19.3614 20.95 19.617C20.6944 19.8725 20.3777 20.0003 20 20.0003H18.6666V28.0003C18.6666 28.3781 18.5388 28.6948 18.2833 28.9503C18.0277 29.2059 17.7111 29.3337 17.3333 29.3337H14.6666C14.2888 29.3337 13.9722 29.2059 13.7166 28.9503C13.4611 28.6948 13.3333 28.3781 13.3333 28.0003ZM16 8.00033C15.2666 8.00033 14.6388 7.73921 14.1166 7.21699C13.5944 6.69477 13.3333 6.06699 13.3333 5.33366C13.3333 4.60033 13.5944 3.97255 14.1166 3.45033C14.6388 2.9281 15.2666 2.66699 16 2.66699C16.7333 2.66699 17.3611 2.9281 17.8833 3.45033C18.4055 3.97255 18.6666 4.60033 18.6666 5.33366C18.6666 6.06699 18.4055 6.69477 17.8833 7.21699C17.3611 7.73921 16.7333 8.00033 16 8.00033Z" fill="#FF7D52"/>
</g>
</svg>
