<svg width="32" height="32" viewBox="0 0 32 32" fill="none" xmlns="http://www.w3.org/2000/svg">
<mask id="mask0_1523_160672" style="mask-type:alpha" maskUnits="userSpaceOnUse" x="0" y="0" width="32" height="32">
<rect width="32" height="32" fill="#D9D9D9"/>
</mask>
<g mask="url(#mask0_1523_160672)">
<path d="M4.41027 25.9999C3.73676 25.9999 3.16667 25.7666 2.7 25.2999C2.23333 24.8333 2 24.2632 2 23.5897V8.41027C2 7.73676 2.23333 7.16667 2.7 6.7C3.16667 6.23333 3.73676 6 4.41027 6H27.5897C28.2632 6 28.8333 6.23333 29.2999 6.7C29.7666 7.16667 29.9999 7.73676 29.9999 8.41027V23.5897C29.9999 24.2632 29.7666 24.8333 29.2999 25.2999C28.8333 25.7666 28.2632 25.9999 27.5897 25.9999H4.41027ZM4.41027 24H27.5897C27.7093 24 27.8076 23.9615 27.8846 23.8846C27.9615 23.8076 28 23.7093 28 23.5897V8.41027C28 8.2906 27.9615 8.1923 27.8846 8.11537C27.8076 8.03843 27.7093 7.99997 27.5897 7.99997H4.41027C4.2906 7.99997 4.1923 8.03843 4.11537 8.11537C4.03843 8.1923 3.99997 8.2906 3.99997 8.41027V23.5897C3.99997 23.7093 4.03843 23.8076 4.11537 23.8846C4.1923 23.9615 4.2906 24 4.41027 24ZM6.30767 14.7948L9.61537 19.5C9.67348 19.594 9.74966 19.6666 9.8439 19.7179C9.93814 19.7692 10.0418 19.7948 10.1549 19.7948H10.4942C10.6826 19.7948 10.844 19.7283 10.9782 19.5951C11.1123 19.462 11.1794 19.3004 11.1794 19.1102V12.8974C11.1794 12.6943 11.115 12.5282 10.986 12.399C10.857 12.2697 10.6912 12.2051 10.4886 12.2051C10.2859 12.2051 10.1196 12.2697 9.98973 12.399C9.8598 12.5282 9.79483 12.6943 9.79483 12.8974V17.2051L6.56663 12.5C6.49483 12.3974 6.40872 12.3226 6.3083 12.2756C6.20788 12.2286 6.09741 12.2051 5.9769 12.2051H5.6351C5.42623 12.2051 5.25534 12.2721 5.12243 12.4061C4.98952 12.5402 4.92307 12.7125 4.92307 12.9231V19.1025C4.92307 19.3056 4.98754 19.4717 5.1165 19.601C5.24548 19.7302 5.41129 19.7948 5.61393 19.7948C5.8166 19.7948 5.98289 19.7302 6.1128 19.601C6.24271 19.4717 6.30767 19.3056 6.30767 19.1025V14.7948ZM13.4743 19.7948H17.1025C17.3056 19.7948 17.4717 19.7303 17.601 19.6014C17.7302 19.4724 17.7948 19.3066 17.7948 19.104C17.7948 18.9013 17.7302 18.735 17.601 18.6051C17.4717 18.4752 17.3056 18.4102 17.1025 18.4102H14.4615V16.7384H17.1025C17.3056 16.7384 17.4717 16.6739 17.601 16.545C17.7302 16.416 17.7948 16.2502 17.7948 16.0475C17.7948 15.8449 17.7302 15.6786 17.601 15.5487C17.4717 15.4188 17.3056 15.3538 17.1025 15.3538H14.4615V13.5897H17.1025C17.3056 13.5897 17.4717 13.5252 17.601 13.3963C17.7302 13.2673 17.7948 13.1015 17.7948 12.8988C17.7948 12.6962 17.7302 12.5299 17.601 12.4C17.4717 12.2701 17.3056 12.2051 17.1025 12.2051H13.4743C13.3136 12.2051 13.173 12.2654 13.0525 12.3859C12.932 12.5064 12.8718 12.647 12.8718 12.8077V19.1923C12.8718 19.353 12.932 19.4936 13.0525 19.6141C13.173 19.7346 13.3136 19.7948 13.4743 19.7948ZM20.6153 19.7948H25.9487C26.2752 19.7948 26.5448 19.6884 26.7576 19.4756C26.9705 19.2628 27.0769 18.9931 27.0769 18.6666V12.8974C27.0769 12.6943 27.0124 12.5282 26.8834 12.399C26.7545 12.2697 26.5886 12.2051 26.386 12.2051C26.1833 12.2051 26.017 12.2697 25.8871 12.399C25.7572 12.5282 25.6923 12.6943 25.6923 12.8974V18.2051H23.9948V14.2307C23.9948 14.0277 23.9303 13.8615 23.8014 13.7323C23.6724 13.6031 23.5066 13.5384 23.304 13.5384C23.1013 13.5384 22.935 13.6031 22.8051 13.7323C22.6752 13.8615 22.6102 14.0277 22.6102 14.2307V18.2051H20.8718V12.8974C20.8718 12.6943 20.8073 12.5282 20.6783 12.399C20.5493 12.2697 20.3835 12.2051 20.1809 12.2051C19.9782 12.2051 19.8119 12.2697 19.682 12.399C19.5521 12.5282 19.4872 12.6943 19.4872 12.8974V18.6666C19.4872 18.9931 19.5936 19.2628 19.8064 19.4756C20.0192 19.6884 20.2888 19.7948 20.6153 19.7948Z" fill="#2DCA72"/>
</g>
</svg>
