<svg width="32" height="32" viewBox="0 0 32 32" fill="none" xmlns="http://www.w3.org/2000/svg">
<path d="M6.3335 7.66665C6.3335 6.93027 6.93045 6.33331 7.66683 6.33331H12.3335C13.0699 6.33331 13.6668 6.93027 13.6668 7.66665V12.3333C13.6668 13.0697 13.0699 13.6666 12.3335 13.6666H7.66683C6.93045 13.6666 6.3335 13.0697 6.3335 12.3333V7.66665Z" stroke="#00ACFF" stroke-width="2" stroke-linecap="round" stroke-linejoin="round"/>
<path d="M6.3335 19.6666C6.3335 18.9303 6.93045 18.3333 7.66683 18.3333H12.3335C13.0699 18.3333 13.6668 18.9303 13.6668 19.6666V24.3333C13.6668 25.0697 13.0699 25.6666 12.3335 25.6666H7.66683C6.93045 25.6666 6.3335 25.0697 6.3335 24.3333V19.6666Z" stroke="#00ACFF" stroke-width="2" stroke-linecap="round" stroke-linejoin="round"/>
<path d="M18.3335 7.66665C18.3335 6.93027 18.9305 6.33331 19.6668 6.33331H24.3335C25.0699 6.33331 25.6668 6.93027 25.6668 7.66665V12.3333C25.6668 13.0697 25.0699 13.6666 24.3335 13.6666H19.6668C18.9305 13.6666 18.3335 13.0697 18.3335 12.3333V7.66665Z" stroke="#00ACFF" stroke-width="2" stroke-linecap="round" stroke-linejoin="round"/>
<path d="M18.3335 19.6666C18.3335 18.9303 18.9305 18.3333 19.6668 18.3333H24.3335C25.0699 18.3333 25.6668 18.9303 25.6668 19.6666V24.3333C25.6668 25.0697 25.0699 25.6666 24.3335 25.6666H19.6668C18.9305 25.6666 18.3335 25.0697 18.3335 24.3333V19.6666Z" stroke="#00ACFF" stroke-width="2" stroke-linecap="round" stroke-linejoin="round"/>
</svg>
