<svg width="32" height="32" viewBox="0 0 32 32" fill="none" xmlns="http://www.w3.org/2000/svg">
<path d="M22 17.3333C22 17.7015 21.7015 18 21.3334 18C20.9652 18 20.6667 17.7015 20.6667 17.3333C20.6667 16.9651 20.9652 16.6667 21.3334 16.6667C21.7015 16.6667 22 16.9651 22 17.3333Z" stroke="#2DCA72" stroke-linecap="round" stroke-linejoin="round"/>
<path d="M6.33331 9.00001V23C6.33331 24.4728 7.52722 25.6667 8.99998 25.6667H23C24.4727 25.6667 25.6666 24.4728 25.6666 23V13C25.6666 11.8954 24.7712 11 23.6666 11H23M23 11H8.66665C7.37798 11 6.33331 9.95534 6.33331 8.66668C6.33331 7.37801 7.37798 6.33334 8.66665 6.33334H20.3333C21.8061 6.33334 23 7.52725 23 9.00001V11Z" stroke="#2DCA72" stroke-width="1.5" stroke-linecap="round" stroke-linejoin="round"/>
</svg>
