<svg width="32" height="32" viewBox="0 0 32 32" fill="none" xmlns="http://www.w3.org/2000/svg">
<mask id="mask0_1523_160686" style="mask-type:alpha" maskUnits="userSpaceOnUse" x="0" y="0" width="32" height="32">
<rect width="32" height="32" fill="#D9D9D9"/>
</mask>
<g mask="url(#mask0_1523_160686)">
<path d="M13.3334 28.0003V21.3337H11.3C10.8334 21.3337 10.4667 21.1392 10.2 20.7503C9.93336 20.3614 9.88891 19.9448 10.0667 19.5003L13.4 11.067C13.6222 10.5337 13.9667 10.1114 14.4334 9.80032C14.9 9.48921 15.4222 9.33366 16 9.33366C16.5778 9.33366 17.1 9.48921 17.5667 9.80032C18.0334 10.1114 18.3778 10.5337 18.6 11.067L21.9334 19.5003C22.1111 19.9448 22.0667 20.3614 21.8 20.7503C21.5334 21.1392 21.1667 21.3337 20.7 21.3337H18.6667V28.0003C18.6667 28.3781 18.5389 28.6948 18.2834 28.9503C18.0278 29.2059 17.7111 29.3337 17.3334 29.3337H14.6667C14.2889 29.3337 13.9722 29.2059 13.7167 28.9503C13.4611 28.6948 13.3334 28.3781 13.3334 28.0003ZM16 8.00033C15.2667 8.00033 14.6389 7.73921 14.1167 7.21699C13.5945 6.69477 13.3334 6.06699 13.3334 5.33366C13.3334 4.60033 13.5945 3.97255 14.1167 3.45033C14.6389 2.9281 15.2667 2.66699 16 2.66699C16.7334 2.66699 17.3611 2.9281 17.8834 3.45033C18.4056 3.97255 18.6667 4.60033 18.6667 5.33366C18.6667 6.06699 18.4056 6.69477 17.8834 7.21699C17.3611 7.73921 16.7334 8.00033 16 8.00033Z" fill="#7047EB"/>
</g>
</svg>
