<svg width="112" height="22" viewBox="0 0 112 22" fill="none" xmlns="http://www.w3.org/2000/svg">
<g id="Logo">
<g id="Layer 2">
<path id="Vector" fill-rule="evenodd" clip-rule="evenodd" d="M26.5897 21.1961H18.6143C18.5564 20.7222 18.5219 20.2451 18.511 19.7671L19.3373 19.4529C20.3953 19.0803 20.5515 17.5067 20.4205 16.25L19.3877 8.03969L19.1357 5.6097H19.0073L14.2563 20.882L11.256 21.8328L6.46978 5.47346H6.31359L6.08184 7.79224L4.66359 17.9182C4.5855 18.4325 4.66359 18.7522 4.94825 18.8329L7.21542 19.692C7.23026 20.1997 7.19564 20.7077 7.11214 21.2073H0.106563C0.023242 20.7368 -0.0114064 20.2573 0.00328189 19.7782L0.932825 19.2638C1.6558 18.8635 2.17221 17.9209 2.30321 17.0396L4.41924 4.52815C4.47612 4.23876 4.43366 3.93636 4.3001 3.67954C4.16653 3.42272 3.95136 3.22974 3.69626 3.13799L2.04374 2.53745C2.04174 2.0209 2.07627 1.50498 2.14702 0.99437H9.01405L12.1805 11.6736L13.1882 15.4381H13.4199L14.5309 11.5457L17.9744 0.980469H24.4989C24.5824 1.48001 24.617 1.98802 24.6022 2.49574L23.3426 2.86552C22.7254 3.06571 22.209 3.75244 22.4156 5.01193L24.5064 17.9126C24.5393 18.1785 24.6387 18.4289 24.7936 18.6357C24.9485 18.8426 25.1527 18.9975 25.3831 19.0831L26.7006 19.7142C26.7031 20.2123 26.6686 20.7098 26.5973 21.2017L26.5897 21.1961Z" fill="black"/>
<path id="Vector_2" fill-rule="evenodd" clip-rule="evenodd" d="M39.291 6.23857L38.6965 3.86418H38.5151L37.8173 6.18018L36.1119 11.157H40.7067L39.2885 6.23857H39.291ZM48.0927 21.1967H40.349C40.2075 20.6674 40.147 20.1158 40.1702 19.5646L41.7194 18.9919C41.9689 18.9123 42.1865 18.7417 42.3366 18.5078C42.4867 18.2739 42.5604 17.9907 42.5457 17.7046C42.5357 17.3802 42.4743 17.0603 42.3643 16.7593L41.3567 13.3256H35.3411L34.1546 16.7287C34.0597 16.9948 34.0069 17.277 33.9984 17.5628C33.9984 18.4191 34.5022 18.8195 35.1093 19.0197L36.787 19.5757C36.8076 20.1236 36.7644 20.6721 36.6586 21.2078H29.9477C29.8507 20.7007 29.8076 20.1828 29.8192 19.6647C30.517 19.0058 30.9301 18.5776 31.2652 17.7185L37.5377 1.38692L40.9435 0.5L46.7525 17.6323C47.0372 18.3747 47.6569 19.1198 48.2237 19.6925C48.2343 20.2014 48.1912 20.7099 48.0952 21.2078L48.0927 21.1967Z" fill="black"/>
<path id="Vector_3" fill-rule="evenodd" clip-rule="evenodd" d="M64.5983 19.2812L58.1444 11.4963V13.1645L58.1948 18.0551C58.22 18.6556 58.3232 18.8558 58.7641 18.9698L60.3889 19.4563C60.4114 20.0427 60.3589 20.6295 60.2327 21.1996H52.1716C52.1079 20.6875 52.0818 20.1705 52.0935 19.6538L53.3329 19.2256C53.6577 19.0922 53.9391 18.8553 54.1414 18.5448C54.3437 18.2344 54.4578 17.8645 54.469 17.4823L54.5194 13.2479V4.72345C54.5055 4.35339 54.3961 3.9954 54.2043 3.69154C54.0124 3.38767 53.7459 3.15054 53.4362 3.008L52.2497 2.49364C52.2152 1.98753 52.244 1.47858 52.3354 0.981147H60.2957C60.3529 1.52306 60.3444 2.07097 60.2705 2.61041L59.084 3.01078C58.3862 3.23876 58.1545 3.98389 58.1545 4.72623V10.7873L63.7821 4.94866C63.9123 4.83561 64.0189 4.69288 64.0945 4.53022C64.1702 4.36756 64.2131 4.18879 64.2204 4.00613C64.2204 3.51958 64.039 3.11921 63.7569 3.00522L62.8148 2.57705C62.7866 2.04042 62.8221 1.50202 62.9206 0.975586H69.7221V2.31848L61.6031 10.07L66.3264 15.4749C67.6942 17.0486 69.2158 18.6195 70.765 19.6204L70.372 21.6556C68.9513 21.6278 66.1652 21.2552 64.5781 19.2812H64.5983Z" fill="black"/>
<path id="Vector_4" fill-rule="evenodd" clip-rule="evenodd" d="M90.0194 21.196H75.308C75.1921 20.6432 75.1488 20.0748 75.1795 19.5083L76.5222 19.1358C77.1419 18.9662 77.6331 18.5352 77.6331 17.9069L77.7087 13.2137V4.69482C77.7087 3.74951 77.3988 3.43534 76.9857 3.26574L75.3583 2.52061C75.3093 2.00342 75.3451 1.4807 75.4641 0.977539H89.6592V5.66793C89.1205 5.74563 88.5777 5.78371 88.0344 5.78192C87.6993 3.98028 87.0545 3.43812 85.9184 3.43812L81.3235 3.29354V9.87733L88.319 9.73553V12.3657L81.3235 12.2239V13.2526L81.4268 18.8883L85.3516 18.7743C87.1829 18.7187 88.4727 17.829 89.0672 15.9412L90.6416 16.3138L90.0194 21.196Z" fill="black"/>
<path id="Vector_5" fill-rule="evenodd" clip-rule="evenodd" d="M110.208 4.17783L104.837 13.1304L104.916 17.8792C104.916 18.452 105.072 18.8801 105.563 18.9914L107.369 19.5057C107.392 20.0744 107.34 20.6438 107.215 21.1961H98.8521C98.767 20.6575 98.7324 20.1106 98.7488 19.5641L100.039 19.1915C100.359 19.0984 100.641 18.8905 100.842 18.6006C101.043 18.3107 101.152 17.9552 101.15 17.5901L101.228 13.3584L95.8821 4.31685C95.4341 3.58892 94.8859 2.94261 94.2573 2.40121C94.21 1.92771 94.2253 1.44913 94.3027 0.980469H101.762C101.852 1.49874 101.887 2.02692 101.865 2.55413C101.661 2.64032 100.754 3.0379 100.754 3.0379C100.532 3.12527 100.341 3.28983 100.211 3.50689C100.08 3.72395 100.017 3.98181 100.031 4.24178C100.042 4.60646 100.14 4.96146 100.316 5.2705L103.749 11.2204L107.105 5.35669C107.264 5.11384 107.352 4.82259 107.357 4.52259C107.357 3.86644 106.865 3.41046 106.53 3.2075L105.291 2.55135C105.261 2.02536 105.293 1.4973 105.387 0.980469H111.891C111.979 1.46998 112.014 1.96934 111.994 2.46794C111.276 2.86026 110.663 3.4513 110.213 4.18339L110.208 4.17783Z" fill="black"/>
</g>
</g>
</svg>
